<svg xmlns="http://www.w3.org/2000/svg" width="2500" height="2500" viewBox="0 0 192.756 192.756"><g fill-rule="evenodd" clip-rule="evenodd"><path fill="#fff" d="M0 0h192.756v192.756H0V0z"/><path d="M149.803 87.841c-.012.03-.02.062-.031.092l.105-.254-.061.131-.013.031zM107.039 20.404l-3.326-.173h-1.494l-3.172.173C73.31 22.443 52.989 43.958 52.989 70.133c0 26.253 20.321 47.835 46.058 49.88l3.055.174H104.055l2.984-.162c18.564-1.475 34.809-13.158 42.076-30.608l-.381.706s1.039-2.224 1.068-2.283c2.182-5.736 3.295-11.693 3.295-17.708.001-26.174-20.322-47.689-46.058-49.728z"/><path d="M88.019 60.387c-1.252 4.926 1.173 6.646 4.379 5.24 1.564-.704 3.206-2.034 4.769-4.145l-4.769-.547-4.379-.548z" fill="#6cb35d"/><path d="M104.518 60.466l-7.352.938h-.078c0 .078.078.078.078.078 2.27 2.814 4.926 4.535 7.352 5.238 5.316 1.642 9.695-1.25 7.738-7.271l-7.738 1.017zM94.43 50.222l2.736-.078h1.486l5.866-.547 7.974-.781 4.533-1.486-6.644-10.163-3.207 1.797-2.656.078-4.926.158-2.426-.236-2.813-.314-1.956 9.462-.391 1.956.391.076 2.033.078zM113.354 51.161l-8.836.782-5.551.469h-8.055l-9.696 5.474 7.115 1.485 4.066.391 4.769.469.783.079 6.569-.939 14.775-1.954 7.506-5.24-9.459-3.517-3.986 2.501z" fill="#6cb35d"/><path d="M103.088 24.189c-25.248 0-46.058 20.506-46.058 45.908 0 25.246 20.811 46.057 46.058 46.057 19.127 0 35.498-11.781 42.383-28.31.309-.458.461-.916.613-1.375 1.992-5.202 3.062-10.71 3.062-16.372 0-25.401-20.658-45.908-46.058-45.908zm-20.36 55.726l-19.73 5.481c-1.836-4.741-2.907-9.946-2.907-15.299 0-23.719 19.432-42.999 42.997-42.999 23.717 0 42.996 19.28 42.996 42.999 0 5.508-1.072 10.711-2.908 15.606l-7.623-2.109-.621-2.721-15.717-2.268 3.129-11.885-3.361-1.955-.861 2.033-10.086 2.503-2.268 2.658 3.127 5.942-.162 4.539-5.643.164v-.026l-8.944.19-.191-.05-1.557-5.988-.469-1.799-2.346-5.552.625-2.267-8.756 1.33-.86 2.267 5.599 8.429-3.463.777z" fill="#6cb35d"/><path d="M91.125 124.969c.03-.029.072-.047.102-.076.028-.027.046-.062.076-.088l-.178.164zM80.006 123.482c.021-.006.044-.012.064-.02.018-.006.033-.016.051-.021l-.115.041zM12.541 125.738c.017-.021.04-.033.057-.055.022-.025.036-.055.058-.08l-.115.135z"/><path d="M181.023 122.895h-27.348l.004.012a12.951 12.951 0 0 0-3.1-.088l-.672.125s-.791-.033-1.596-.049h-14.426v.465c-1.492-.508-3.074-.596-4.322-.596h-8.967c-2.975 0-5.135.633-6.617 1.898-1.482-1.271-3.656-1.898-6.639-1.898h-9.227c-3.157 0-5.405.703-6.888 2.129-.043.039-.078.082-.119.121-1.652-1.51-3.787-2.25-6.508-2.25-1.8 0-3.24.225-4.529.699-.618.209-1.2.486-1.766.818a26.595 26.595 0 0 0-.705-.48l-.232-.154-.258-.111c-1.244-.533-2.54-.771-4.205-.771-.886 0-1.744.107-2.635.27v-.139H55.137v.529c-1.222-.438-2.694-.66-4.455-.66h-8.706c-1.25 0-2.832.088-4.325.604v-.473H22.519v.137a14.489 14.489 0 0 0-1.662-.223l-.026-.006v.004a15.259 15.259 0 0 0-1.076-.043c-3.216 0-5.555.961-7.157 2.92-1.625 1.846-2.423 4.277-2.423 7.441v10.785c0 2.398.437 4.336 1.304 5.885h-.265v10.975h17.117c2.054 0 5.012-.229 6.988-2.203 1.279-1.279 2.012-2.984 2.245-5.17 1.312.65 2.845 1.004 4.543 1.004.365 0 .721-.016 1.074-.041l1.448-.055 1.054-.162H94.05v-.398c1.141.354 2.489.529 4.065.529h9.227c2.932 0 5.072-.617 6.553-1.846 1.959 1.633 4.656 1.846 6.572 1.846h9.098c1.248 0 2.83-.092 4.322-.604v7.1h15.393V154.9v-.781l1.131.211c.449.043.906.072 1.375.072a10.53 10.53 0 0 0 3.414-.541v6.91h10.102c2.291 0 3.926-.162 5.139-.512l.117-.033.113-.041c1.09-.41 2.266-.928 3.49-1.947l.105-.09.098-.096c.768-.766 1.721-1.717 2.348-3.18.58-1.355 1.115-2.996 1.586-4.881.002-.014 6.66-27.096 6.66-27.096h-3.935z"/><path d="M102.51 150.986v-4.809c.389 0 .777-.131.908-.521.26-.258.389-.779.389-1.43v-3.248h9.357v4.291c0 2.078-.391 3.637-1.299 4.416-.91.91-2.6 1.301-4.811 1.301h-4.544zm0-11.957v-4.547h1.297v-1.949c0-.779 0-1.299-.26-1.689-.26-.262-.648-.521-1.037-.521v-4.678h4.545c2.211 0 3.9.389 4.811 1.301.908.908 1.299 2.338 1.299 4.416v7.668H102.51v-.001zm0-13.384v4.678h-.131c-.391 0-.779.26-.91.521-.26.391-.391.91-.391 1.689v1.949h1.432v4.547h-1.301v5.197c0 .65 0 1.172.26 1.43.26.391.52.521.91.521h.131v4.809h-4.68c-2.209 0-3.899-.391-4.807-1.301-.911-.779-1.301-2.338-1.301-4.416v-13.908c0-2.078.39-3.637 1.301-4.416.908-.912 2.598-1.301 4.807-1.301h4.68v.001zm-56.531 24.562v-4.551c.391 0 .78-.129 1.039-.52.26-.26.391-.777.391-1.559v-3.898l-1.3.65c-.13 0-.13 0-.13.129v-6.367l1.299-.65v-1.037c0-.781 0-1.301-.26-1.561-.259-.262-.648-.389-1.039-.389v-4.811h4.418c2.21 0 3.899.389 4.808 1.301.91.908 1.299 2.338 1.299 4.416v19.496H47.54v-1.561c-.522.391-1.041.652-1.561.912zm11.955.65v-25.082h8.967v1.559a8.75 8.75 0 0 1 2.729-1.301c1.041-.258 1.949-.389 2.989-.389 1.17 0 2.079.131 2.989.521.78.518 1.56 1.037 2.21 1.949.908-.912 1.819-1.561 2.988-1.949 1.04-.391 2.209-.521 3.509-.521 2.079 0 3.639.521 4.809 1.818 1.039 1.301 1.559 3.119 1.559 5.459v17.936h-9.227v-17.545c0-.65 0-1.041-.259-1.43-.261-.26-.521-.521-1.041-.521-.39 0-.779.262-.909.521-.26.26-.39.779-.39 1.43v17.545H69.76v-17.545c0-.65-.13-1.041-.259-1.43-.26-.26-.521-.521-1.041-.521-.389 0-.778.262-.909.521-.26.26-.39.779-.39 1.43v17.545h-9.227zm-23.65.78c0 2.207-.52 3.635-1.43 4.545-.909.91-2.468 1.303-4.807 1.303h-4.418v-4.939c.389 0 .648-.129.779-.129.39-.262.52-.65.52-1.172v-1.82c-.391.393-.91.523-1.299.783v-4.938c.519 0 .779-.133 1.039-.521.13-.26.26-.779.26-1.43v-10.006c0-.65-.129-1.17-.26-1.43-.26-.26-.521-.521-1.039-.521v-4.807c.519.129 1.039.52 1.688.908v-1.688h8.967v25.862zm11.695-25.992v4.811h-.13c-.39 0-.78.127-1.039.389-.13.391-.261.91-.261 1.561v.775h-9.096v-1.818c0-2.078.52-3.637 1.429-4.416.911-.912 2.47-1.301 4.808-1.301h4.289v-.001zm0 8.447v6.367c-.52.26-.91.52-1.169.908-.261.393-.39.91-.39 1.691v.52c0 .781.129 1.17.39 1.559.259.391.649.52 1.039.52h.13v4.551c-.39.129-.91.389-1.299.518-.909.262-1.819.391-2.858.391-2.08 0-3.769-.648-4.808-1.949-1.04-1.168-1.69-2.988-1.69-5.459v-1.037c0-1.561.389-2.73.91-3.51.521-.91 1.56-1.561 3.119-2.209l6.626-2.861zm-22.351 23.392H14.01v-4.809h8.708c.389 0 .649 0 .91-.131v4.94-7.277c-.39.26-.91.389-1.43.518a9.812 9.812 0 0 1-2.73.391c-2.078 0-3.768-.648-4.807-1.949-1.17-1.168-1.689-2.988-1.689-5.459v-10.785c0-2.34.52-4.158 1.689-5.459 1.039-1.297 2.599-1.818 4.807-1.818 1.041 0 1.95.131 2.99.389.39.133.78.262 1.17.521v4.807c-.39 0-.78.262-.91.521-.26.389-.391.779-.391 1.43v10.006c0 .65.13 1.17.391 1.43.13.26.52.521.91.521V157.484z" fill="#6cb35d"/><path d="M157.736 146.178v-15.723c.131.779.262 1.559.262 2.467v10.785c0 .912-.131 1.691-.262 2.471zm0-20.403v.908l-.26-.908h.26zm0 .909l5.588 22.482c.131.131.131.391.131.65v.779c0 .781-.131 1.301-.52 1.559-.391.391-1.039.521-1.82.521h-3.117v4.809h7.018c1.949 0 3.379-.131 4.287-.393 1.041-.391 1.818-.779 2.598-1.428.652-.65 1.303-1.301 1.691-2.211.391-.908.908-2.338 1.43-4.416l5.717-23.262h-9.617l-2.08 16.635-1.947-16.635h-9.357v.91h-.002zm0 3.771c-.26-1.172-.779-2.211-1.428-2.992-1.17-1.297-2.73-1.818-4.809-1.818-1.039 0-2.08.131-2.988.389-.391.133-.908.262-1.301.521v4.807c.52 0 .779.262 1.039.521.131.389.262.779.262 1.43v10.006c0 .65-.131 1.17-.262 1.43-.26.389-.52.521-1.039.521v4.938c.52.26.91.389 1.43.518.912.262 1.82.391 2.859.391 2.078 0 3.639-.648 4.809-1.949a6.44 6.44 0 0 0 1.428-2.988v-15.725zm-22.22 14.815c0 2.078-.52 3.637-1.43 4.416-.91.91-2.469 1.301-4.807 1.301h-9.098c-2.338 0-3.898-.391-4.807-1.301-.912-.779-1.43-2.338-1.43-4.416v-3.121h9.484v2.078c0 .65.131 1.172.391 1.43.129.391.52.521.91.521.518 0 .779-.131 1.039-.521.129-.258.258-.779.258-1.43v-.648c0-.65-.129-1.168-.518-1.559-.391-.391-.91-.652-1.689-.91l-5.328-1.949c-1.689-.518-2.859-1.168-3.377-1.949-.652-.779-.91-1.951-.91-3.377v-2.473c0-2.078.389-3.637 1.299-4.416.91-.912 2.6-1.301 4.807-1.301h8.969c2.338 0 3.896.389 4.807 1.301.91.908 1.43 2.338 1.43 4.416v1.818h-9.357v-.646c0-.65-.131-1.172-.26-1.559-.258-.262-.65-.393-1.039-.393s-.65.131-.91.393c-.258.26-.389.648-.389 1.039 0 .52.131.908.389 1.299.391.26 1.041.65 2.209 1.039l4.029 1.43c2.08.781 3.508 1.559 4.289 2.469.65.91 1.039 2.209 1.039 3.898v3.121l11.695-18.715v4.807c-.391 0-.779.262-.908.521-.262.26-.391.779-.391 1.43v10.006c0 .65.129 1.17.258 1.43.262.389.65.521 1.041.521v4.938c-.391-.26-.779-.391-1.299-.783v8.061h-9.227v-31.709h8.967v1.688c.518-.389 1.039-.648 1.559-.908l-11.695 18.713z" fill="#fff"/><path d="M13.89 107.609h.265c.39 0 .723 0 .959.094.417.221.459.912.459 1.369 0 .406-.055.879-.305 1.193-.39.346-.919.283-1.378.299v-2.955zm0 9.666v-4.59c.919-.047 1.906.096 2.754-.377 1.113-.582 1.376-2.012 1.376-3.285 0-.959-.111-1.84-.681-2.562-.681-.879-2.044-.973-2.991-.973h-2.906v11.787h2.448z"/><path d="M13.89 105.939h-1.669v6.316l1.907-.025c.507-.004 1.451-.01 2.248-.717l.108-.096.09-.113c.45-.564.668-1.295.668-2.232 0-1.416-.454-2.373-1.351-2.846l-.077-.041-.081-.031c-.534-.215-1.065-.215-1.579-.215h-.264z"/><path d="M11.423 103.818h-1.65v14.951h5.718v-4.59c.597-.051 1.236-.174 1.874-.527.987-.516 2.209-1.768 2.209-4.689 0-1.049-.116-2.398-1.028-3.555-1.103-1.424-2.955-1.59-4.251-1.59h-2.872zm2.873 3.299c1.333 0 1.609.27 1.651.322.236.301.328.738.328 1.523 0 1.135-.256 1.67-.475 1.785-.307.17-.795.172-1.313.172l-1.414.027v-3.83l1.223.001z"/><path d="M23.25 113.756c0 .676-.055 1.682-.848 1.682-.792 0-.89-1.006-.89-1.682v-4.842c0-.723.098-1.588.876-1.588.808 0 .862.865.862 1.588v4.842zm2.449-5.031c0-2.264-1.154-3.521-3.296-3.521s-3.338 1.258-3.338 3.521v4.795c0 2.656.863 4.039 3.338 4.039 2.476 0 3.296-1.383 3.296-4.039v-4.795z"/><path d="M19.843 108.914v4.842c0 3.189 2.131 3.35 2.559 3.35.757 0 2.518-.326 2.518-3.35v-4.842c0-2.939-1.77-3.258-2.532-3.258-.597 0-2.545.237-2.545 3.258z"/><path d="M17.572 108.725v4.795c0 4.717 2.723 5.709 5.007 5.709 3.296 0 4.965-1.922 4.965-5.709v-4.795c0-3.201-1.902-4.928-4.965-4.928-3.089 0-5.007 1.726-5.007 4.928zm3.339 4.795v-4.795c0-1.541.638-1.852 1.668-1.852 1.031 0 1.627.303 1.627 1.852v4.795c0 2.371-.612 2.371-1.627 2.371-1.005 0-1.668 0-1.668-2.371z"/><path d="M33.877 113.756h.028l.764-8.268h2.324l-1.74 11.787H32.5l-.751-8.298h-.028l-.806 8.298h-2.712l-1.753-11.787h2.364l.737 8.283.029-.031.987-8.252h2.364l.946 8.268z"/><path d="M36.851 103.818H22.886l3.855 14.951h9.816l2.206-14.951h-1.912zm-7.511 9.991c.083.002.084.002.168.002l-.066.686-.102-.688 4.615-.002-.116.781-.07-.779c.094 0 .094 0 .187-.002l-4.616.002z"/><path d="M37.841 117.275v-11.787h5.605v2.356h-3.157v2.17h3.06v2.357h-3.06v2.547h3.324v2.357h-5.772z"/><path d="M43.446 103.816h-7.275v14.936h9.11v-5.621h-.264v-3.689h.098v-5.625h-1.669v-.001z"/><path d="M47.257 107.609c1.196-.031 1.71.031 1.71 1.43 0 .725-.167 1.463-.876 1.463h-.834v-2.893zm0 5.014h.806c.571.047.765.52.834 1.242.07.723.014 1.697.056 2.734.014.236.069.457.139.676h2.67v-.156a1.05 1.05 0 0 1-.236-.41c-.139-.754-.153-2.781-.223-3.725-.041-.816-.528-1.352-1.21-1.525v-.029c1.029-.535 1.293-1.432 1.293-2.689 0-2.342-1.001-3.252-3.004-3.252H44.81v11.787h2.447v-4.653z"/><path d="M47.213 105.941l-1.626.041v6.188h2.504c1.175 0 2.545-.82 2.545-3.131 0-.676-.084-1.658-.812-2.367-.8-.779-1.846-.752-2.611-.731z"/><path d="M44.577 103.818h-1.65v14.951s4.596-.039 4.787-.039c.007.041 0 0 0 0l1.097.039H53.1v-2.338l-.285-.373c-.052-.453-.084-1.285-.108-1.936l-.065-1.367c-.028-.551-.217-1.041-.48-1.484.478-.863.567-1.82.567-2.588 0-3.139-1.64-4.865-4.619-4.865h-3.533zm3.533 3.299c.905 0 1.319 0 1.319 1.566 0 .99-.188 1.088-.388 1.193l-1.917.994h-.897v-3.754l1.883.001z"/><path d="M52.667 117.275v-11.787h5.605v2.356h-3.157v2.17h3.06v2.357h-3.06v2.547h3.324v2.357h-5.772z"/><path d="M57.883 103.818h-9.418l2.228 14.951h9.005v-5.631h-.261v-3.691h.096v-5.629h-1.65z"/><path d="M62.14 107.609c1.196.031 1.599.109 1.613 1.492v3.852c.042 1.572.028 2.326-1.613 2.201v-7.545zm.848 9.666c.751 0 1.53-.078 2.169-.549.71-.504 1.029-1.369 1.043-2.547v-5.234c0-1.131-.153-2.279-1.098-2.908-.794-.52-1.864-.549-2.754-.549h-2.656v11.787h3.296z"/><path d="M60.469 107.609v9.09l1.542.119c.718.055 1.765.039 2.564-.721.907-.861.876-2.045.846-3.188V109.1c-.031-3.076-2.197-3.133-3.239-3.16l-1.714-.047v1.716h.001z"/><path d="M59.285 103.818h-1.65v14.951h4.908c.908 0 2.082-.098 3.123-.865 1.101-.781 1.681-2.074 1.702-3.826v-5.193c0-.83 0-3.035-1.822-4.248-1.157-.756-2.483-.818-3.635-.818h-2.626v-.001zm2.626 3.299c.489 0 1.399 0 1.819.275.14.092.338.357.338 1.492v5.174c-.004.34-.053.971-.334 1.172-.236.172-.584.238-1.19.238h-1.608v-8.352l.975.001zM73.461 112.246c1.042.047 1.739.016 1.739 1.383 0 1.588-.515 1.494-1.739 1.525v-2.908zm0-4.637c.861 0 1.572-.047 1.572 1.115 0 1.398-.501 1.322-1.572 1.398v-2.513l1.001 9.666c1.988 0 3.185-1.021 3.185-3.41 0-1.463-.237-2.09-1.35-2.814v-.031c.849-.518 1.183-1.445 1.183-2.482 0-2.375-1.446-3.049-3.296-3.049h-3.171v11.787h3.449l-1.001-9.667z"/><path d="M71.792 112.246v4.613l1.921-.041c1.024-.021 3.156-.064 3.156-3.189 0-2.91-2.329-3.008-3.206-3.045l-1.869-.08-.002 1.742z"/><path d="M73.554 105.939l-1.76.002-.002 1.668v4.301l2.005-.135c.87-.059 2.905-.189 2.905-3.051 0-.854-.252-1.539-.749-2.035-.756-.751-1.745-.751-2.399-.75zm.013 2.733c.058.053.156.146.259.24l-.174.176c-.09-.08-.135-.16-.188-.254.036-.055.054-.111.103-.162z"/><path d="M70.827 103.818h-1.65v14.951h5.06c3.004 0 4.797-1.879 4.797-5.021 0-1.143-.186-2.055-.748-2.869.374-.68.582-1.484.582-2.398 0-2.963-1.788-4.662-4.907-4.662h-3.134v-.001z"/><path d="M82.056 109.338h.027l1.253-3.85h2.448l-2.518 6.836v4.951h-2.448v-4.951l-2.462-6.836h2.477l1.223 3.85z"/><path d="M85.425 103.818h-3.618s-.028.09-.035.107l-.033-.107h-7.28s4.23 8.195 4.409 8.695v6.256h5.72v-6.25l3.203-8.701h-2.366z"/><path d="M86.258 111.24v-2.688h2.351v2.688h-2.351zm0 6.035v-2.688h2.351v2.688h-2.351z"/><path d="M88.217 106.846h-3.972v5.957h5.622v-5.957h-1.65z"/><path d="M88.256 112.566h-4.019v6.026h5.688v-6.026h-1.669z"/><path d="M13.849 107.596h.265c.39 0 .723 0 .96.094.418.221.459.912.459 1.367 0 .408-.056.881-.306 1.195-.39.346-.917.283-1.377.299v-2.955h-.001zm0 9.666v-4.59c.919-.047 1.906.096 2.754-.377 1.113-.58 1.377-2.012 1.377-3.285 0-.959-.111-1.838-.682-2.562-.681-.879-2.045-.973-2.99-.973h-2.907v11.787h2.448zM23.21 113.742c0 .676-.056 1.682-.849 1.682s-.89-1.006-.89-1.682V108.9c0-.723.097-1.588.875-1.588.808 0 .863.865.863 1.588v4.842h.001zm2.448-5.031c0-2.264-1.154-3.52-3.296-3.52-2.143 0-3.338 1.256-3.338 3.52v4.795c0 2.656.862 4.039 3.338 4.039s3.296-1.383 3.296-4.039v-4.795zM33.836 113.742h.028l.765-8.267h2.323l-1.739 11.787h-2.754l-.751-8.299h-.028l-.806 8.299h-2.712l-1.753-11.787h2.364l.738 8.281.028-.029.987-8.252h2.365l.945 8.267zM37.8 117.262v-11.787h5.605v2.357h-3.156V110h3.059v2.357h-3.059v2.547h3.323v2.358H37.8zM47.217 107.596c1.196-.031 1.71.031 1.71 1.43 0 .725-.167 1.463-.876 1.463h-.834v-2.893zm0 5.013h.807c.57.047.765.52.833 1.242.07.723.014 1.697.056 2.734.014.236.07.457.139.676h2.67v-.156a1.082 1.082 0 0 1-.236-.408c-.14-.756-.153-2.783-.223-3.727-.042-.816-.528-1.352-1.21-1.525v-.031c1.029-.533 1.293-1.43 1.293-2.688 0-2.342-1.001-3.252-3.003-3.252h-3.575v11.787h2.448v-4.652h.001zM52.626 117.262v-11.787h5.606v2.357h-3.158V110h3.061v2.357h-3.061v2.547h3.324v2.358h-5.772zM62.098 107.596c1.196.031 1.599.109 1.614 1.492v3.852c.042 1.572.027 2.326-1.614 2.201v-7.545zm.849 9.666c.75 0 1.53-.078 2.169-.549.71-.504 1.029-1.369 1.043-2.547v-5.234c0-1.131-.152-2.279-1.098-2.908-.793-.52-1.864-.549-2.754-.549H59.65v11.787h3.297zM73.42 112.232c1.043.047 1.739.016 1.739 1.383 0 1.588-.515 1.492-1.739 1.525v-2.908zm0-4.636c.862 0 1.572-.047 1.572 1.115 0 1.398-.501 1.32-1.572 1.398v-2.513l1.001 9.666c1.989 0 3.185-1.021 3.185-3.41 0-1.461-.236-2.092-1.349-2.814v-.031c.848-.518 1.182-1.445 1.182-2.482 0-2.373-1.446-3.049-3.295-3.049h-3.171v11.787h3.449l-1.002-9.667zM82.015 109.324h.028l1.252-3.849h2.448l-2.517 6.836v4.951h-2.448v-4.951l-2.462-6.836h2.476l1.223 3.849zM86.217 111.227v-2.688h2.352v2.688h-2.352zm0 6.035v-2.688h2.352v2.688h-2.352z" fill="#fff"/></g></svg>